<svg width="220" height="28" viewBox="0 0 220 28" fill="none" xmlns="http://www.w3.org/2000/svg">
<path d="M19.4027 7.36208V1.35027C19.4027 0.705146 18.8794 0.190918 18.2439 0.190918H12.2349C11.291 0.190918 10.3565 0.377903 9.48742 0.733186C8.61827 1.09782 7.82396 1.62141 7.16042 2.29458L7.11373 2.34133C6.23527 3.22954 5.60912 4.33278 5.29138 5.54823C5.86143 5.39864 6.45019 5.32384 7.03895 5.3145C8.60891 5.29579 10.1509 5.80067 11.4032 6.745C12.534 7.58647 13.3937 8.74579 13.861 10.0828C14.3469 11.4385 14.403 12.9157 14.0386 14.3088C15.2441 13.991 16.3562 13.3645 17.244 12.4856L17.2907 12.4389C17.9543 11.7751 18.4869 10.9803 18.8514 10.1108C19.2159 9.24134 19.3934 8.30636 19.3934 7.36208H19.4027Z" fill="#FB923C"/>
<path d="M5.11193 7.26034C5.12124 5.4161 5.85673 3.64637 7.1508 2.32373L2.15129 7.32553C2.13267 7.34419 2.11404 7.3535 2.09543 7.3721C0.875804 8.58297 0.140324 10.2037 0.019293 11.9175C-0.0924279 13.5196 0.326517 15.103 1.22029 16.4257C1.30553 16.5519 1.53685 16.5933 1.6672 16.4723L4.73021 13.4171C5.68914 12.4578 5.98709 11.0327 5.53088 9.75657C5.24227 8.96489 5.10262 8.11727 5.11193 7.26034Z" fill="#C2410C"/>
<path d="M17.2623 12.4395C16.3034 13.3802 15.1024 14.0322 13.7989 14.321C12.4862 14.6097 11.127 14.5259 9.86083 14.0788C9.86083 14.0788 9.85146 14.0788 9.84216 14.0788C8.56669 13.6224 7.14225 13.9205 6.18334 14.8706L3.12027 17.9256C2.98993 18.0561 3.00855 18.2703 3.16682 18.3727C4.48885 19.2576 6.07158 19.6861 7.67291 19.5743C9.38599 19.4532 10.9966 18.7174 12.2162 17.4972L12.2628 17.4506L17.2623 12.4488V12.4395Z" fill="#C2410C"/>
<text x="30" y="16" font-family="Inter, ui-sans-serif, system-ui, -apple-system, sans-serif" font-size="14" font-weight="700" fill="#09090B" letter-spacing="-0.01em">appleai.codes</text>
<text x="30" y="25" font-family="Inter, ui-sans-serif, system-ui, -apple-system, sans-serif" font-size="9" font-weight="600" fill="#71717A" letter-spacing="0.18em">DOCS</text>
</svg>
